<?xml version="1.0" standalone="no"?>
<!DOCTYPE svg PUBLIC "-//W3C//DTD SVG 20010904//EN"
 "http://www.w3.org/TR/2001/REC-SVG-20010904/DTD/svg10.dtd">
<svg version="1.0" xmlns="http://www.w3.org/2000/svg"
 width="3840.000000pt" height="2160.000000pt" viewBox="0 0 3840.000000 2160.000000"
 preserveAspectRatio="xMidYMid meet">

<g transform="translate(0.000000,2160.000000) scale(0.100000,-0.100000)"
fill="#000000" stroke="none">
<path d="M13235 13714 c-97 -20 -167 -40 -225 -64 -214 -88 -406 -285 -490
-503 -64 -163 -60 -26 -60 -2252 l0 -2025 384 0 383 0 7 68 c4 37 9 88 12 113
l6 47 94 -64 c401 -272 948 -328 1479 -153 263 87 468 211 645 388 136 136
230 271 325 466 111 226 166 425 187 670 42 489 -146 1039 -471 1377 -243 253
-568 423 -946 494 -140 27 -430 27 -570 0 -210 -39 -396 -118 -545 -230 l-85
-64 -3 869 -2 869 -53 -1 c-28 -1 -61 -3 -72 -5z m1165 -2288 c161 -41 265
-96 378 -201 116 -107 207 -263 252 -430 33 -121 39 -358 12 -485 -69 -336
-288 -574 -607 -662 -68 -19 -107 -22 -265 -22 -163 -1 -195 2 -269 22 -171
47 -302 123 -438 255 l-83 81 0 547 0 547 77 82 c92 98 172 157 285 209 154
72 254 92 438 86 88 -3 153 -11 220 -29z"/>
<path d="M1565 13703 c-306 -40 -594 -178 -817 -392 -215 -206 -350 -447 -424
-761 -17 -71 -19 -207 -21 -2369 l-3 -2294 79 7 c372 31 687 298 794 674 22
77 22 80 25 1210 l3 1132 509 0 510 0 0 430 0 430 -510 0 -510 0 0 293 c0 260
2 303 20 371 46 181 167 315 348 385 l67 26 498 3 497 3 0 430 0 429 -517 -1
c-285 -1 -531 -4 -548 -6z"/>
<path d="M7630 13699 c-157 -26 -331 -114 -452 -228 -117 -110 -199 -235 -250
-381 -49 -140 -48 -109 -48 -2237 l0 -1993 455 0 455 0 0 2425 0 2425 -52 -1
c-29 -1 -78 -5 -108 -10z"/>
<path d="M21218 13700 c-74 -13 -157 -39 -235 -75 -212 -98 -388 -290 -467
-513 -58 -164 -56 -66 -56 -2248 l0 -2004 455 0 455 0 0 2425 0 2425 -52 -1
c-29 -1 -74 -5 -100 -9z"/>
<path d="M22738 13700 c-385 -65 -694 -384 -747 -773 -8 -54 -11 -707 -11
-2073 l0 -1994 455 0 455 0 0 2425 0 2425 -52 -1 c-29 -1 -74 -5 -100 -9z"/>
<path d="M4380 12289 c-212 -24 -484 -101 -669 -190 -504 -240 -831 -700 -925
-1299 -58 -370 1 -743 171 -1085 62 -125 175 -298 258 -396 157 -186 424 -354
711 -448 520 -171 1067 -114 1463 152 46 32 85 57 86 57 1 0 17 -49 36 -110
l34 -110 367 0 368 0 -2 1633 -3 1632 -69 -3 c-134 -6 -306 -67 -418 -147
l-48 -35 -84 56 c-235 153 -539 260 -831 294 -105 12 -337 11 -445 -1z m438
-859 c210 -50 399 -172 519 -334 l43 -58 0 -544 0 -544 -62 -61 c-167 -165
-377 -253 -633 -266 -355 -17 -637 84 -805 289 -67 82 -144 240 -172 353 -28
114 -30 349 -5 460 85 378 330 632 675 705 124 26 330 26 440 0z"/>
<path d="M9953 12289 c-198 -23 -438 -88 -627 -170 -477 -207 -801 -608 -936
-1160 -43 -175 -53 -284 -47 -491 5 -206 26 -331 83 -507 68 -211 226 -490
363 -645 266 -300 688 -495 1165 -537 366 -33 750 63 1027 256 42 29 66 40 69
32 2 -6 18 -55 35 -107 l31 -95 367 -3 367 -2 0 1636 0 1636 -67 -7 c-154 -15
-291 -62 -406 -140 l-66 -44 -82 54 c-236 154 -543 263 -831 294 -112 13 -339
12 -445 0z m448 -863 c211 -53 386 -167 510 -332 l39 -51 0 -551 0 -550 -67
-62 c-131 -120 -261 -190 -430 -232 -73 -18 -118 -22 -258 -23 -236 0 -357 25
-516 107 -206 106 -351 308 -404 564 -22 105 -22 313 0 419 43 209 125 365
261 496 114 110 237 177 389 212 100 24 106 24 251 26 109 1 148 -3 225 -23z"/>
<path d="M17935 12284 c-588 -79 -1045 -382 -1318 -874 -90 -162 -176 -434
-197 -625 -15 -132 -12 -357 5 -492 91 -698 497 -1204 1132 -1412 230 -75 432
-105 718 -105 284 0 460 27 682 105 222 79 421 206 584 375 100 104 242 296
227 309 -9 7 -669 355 -674 355 -4 0 -36 -26 -73 -59 -314 -277 -684 -365
-1070 -255 -276 79 -467 242 -540 461 -12 34 -21 72 -21 83 0 20 0 20 1269 20
l1268 0 12 68 c22 117 25 420 6 556 -82 591 -412 1077 -902 1330 -135 69 -354
134 -542 160 -137 19 -424 20 -566 0z m549 -803 c217 -58 382 -192 476 -386
40 -82 70 -185 70 -242 l0 -33 -819 0 -820 0 6 38 c3 20 16 71 30 112 84 258
312 462 583 521 118 26 360 21 474 -10z"/>
<path d="M25160 12294 c-14 -2 -65 -9 -115 -15 -115 -14 -291 -58 -425 -104
-595 -207 -966 -648 -1100 -1307 -42 -207 -42 -485 0 -695 75 -370 292 -763
542 -980 331 -288 859 -454 1316 -415 290 25 546 113 753 257 l64 45 36 -108
36 -107 366 -3 367 -2 -2 1632 -3 1633 -60 -3 c-139 -7 -299 -62 -416 -142
l-59 -40 -84 55 c-100 65 -299 163 -406 198 -210 71 -368 98 -600 102 -102 2
-196 2 -210 -1z m410 -872 c106 -32 184 -67 261 -117 87 -57 197 -160 239
-225 l30 -47 0 -546 0 -545 -74 -69 c-221 -203 -515 -286 -866 -243 -396 49
-649 277 -737 665 -24 107 -21 326 5 444 43 187 118 327 247 457 127 128 251
195 435 235 116 26 364 21 460 -9z"/>
<path d="M29543 11649 c-532 -51 -979 -369 -1172 -834 -52 -124 -53 -119 30
-133 184 -32 382 -126 532 -255 32 -27 59 -48 61 -46 1 2 10 32 19 67 68 249
281 461 522 518 196 46 515 -24 724 -160 40 -26 74 -46 76 -44 10 11 355 558
355 563 0 12 -176 119 -272 165 -181 86 -377 140 -584 160 -121 11 -170 11
-291 -1z"/>
<path d="M32136 11649 c-252 -24 -511 -124 -711 -275 -88 -66 -227 -208 -289
-296 -92 -130 -180 -331 -216 -493 -35 -154 -41 -398 -15 -561 92 -578 505
-1010 1088 -1136 147 -32 457 -32 599 0 364 80 657 268 857 548 291 409 338
977 121 1441 -178 380 -540 662 -960 747 -164 33 -309 41 -474 25z m307 -685
c190 -42 370 -182 454 -354 63 -129 77 -193 77 -350 0 -98 -4 -153 -17 -200
-62 -226 -224 -406 -437 -485 -63 -24 -95 -29 -200 -33 -150 -5 -214 8 -340
70 -302 148 -447 551 -325 908 37 108 81 177 169 266 130 130 277 191 464 193
46 1 115 -6 155 -15z"/>
<path d="M35107 11649 c-277 -28 -611 -132 -924 -285 l-133 -65 0 -1190 0
-1189 350 0 350 0 0 985 0 985 38 18 c128 65 378 92 517 57 211 -54 369 -224
395 -425 5 -42 10 -416 10 -847 l0 -773 350 0 351 0 -3 928 c-3 852 -4 931
-20 970 l-18 43 73 34 c120 56 225 79 357 79 134 0 208 -16 319 -70 85 -42
172 -123 213 -200 58 -107 58 -106 58 -982 l0 -802 353 2 352 3 0 835 c0 893
-1 914 -51 1089 -108 377 -419 671 -821 778 -87 23 -117 26 -263 26 -182 1
-240 -9 -416 -68 -105 -35 -290 -124 -404 -194 -53 -33 -68 -38 -81 -28 -85
61 -213 144 -258 167 -77 38 -215 86 -303 104 -95 20 -280 27 -391 15z"/>
<path d="M28042 10175 c-128 -29 -264 -114 -351 -220 -164 -200 -194 -465 -79
-704 57 -120 170 -232 289 -289 112 -53 174 -67 299 -66 84 1 121 7 186 28
239 77 409 282 444 535 27 201 -37 387 -185 537 -86 86 -136 119 -249 160 -89
33 -255 42 -354 19z"/>
<path d="M30281 9725 c-176 -121 -384 -185 -598 -185 -119 0 -197 17 -285 61
l-58 29 0 -109 c0 -174 -40 -341 -121 -502 l-38 -76 97 -26 c169 -45 227 -52
432 -51 162 0 213 4 298 22 159 35 256 68 397 137 122 61 300 181 312 211 4
12 -355 534 -367 533 -3 0 -34 -20 -69 -44z"/>
</g>
</svg>
