<?xml version="1.0" standalone="no"?>
<!DOCTYPE svg PUBLIC "-//W3C//DTD SVG 20010904//EN"
 "http://www.w3.org/TR/2001/REC-SVG-20010904/DTD/svg10.dtd">
<svg version="1.0" xmlns="http://www.w3.org/2000/svg"
 width="50.000000pt" height="50.000000pt" viewBox="0 0 50.000000 50.000000"
 preserveAspectRatio="xMidYMid meet">

<g transform="translate(0.000000,50.000000) scale(0.100000,-0.100000)"
fill="#000000" stroke="none">
<path d="M250 365 l-54 -54 -1 -98 c-2 -138 -5 -134 118 -131 l102 3 3 114 3
115 -43 44 c-67 68 -68 68 -128 7z m70 20 c0 -8 -7 -15 -15 -15 -16 0 -20 12
-8 23 11 12 23 8 23 -8z m-30 -145 l0 -80 45 0 c41 0 45 -2 45 -25 0 -24 -2
-25 -70 -25 l-70 0 0 105 0 105 25 0 c25 0 25 -1 25 -80z"/>
<path d="M192 379 c-16 -6 -37 -38 -68 -105 -24 -52 -44 -100 -44 -105 0 -8
71 -49 85 -49 3 0 5 46 5 102 0 101 0 102 32 135 33 34 30 39 -10 22z"/>
</g>
</svg>
