<?xml version="1.0" standalone="no"?>
<!DOCTYPE svg PUBLIC "-//W3C//DTD SVG 20010904//EN"
 "http://www.w3.org/TR/2001/REC-SVG-20010904/DTD/svg10.dtd">
<svg version="1.0" xmlns="http://www.w3.org/2000/svg"
 width="500.000000pt" height="500.000000pt" viewBox="0 0 500.000000 500.000000"
 preserveAspectRatio="xMidYMid meet">

<g transform="translate(0.000000,500.000000) scale(0.100000,-0.100000)"
fill="#000000" stroke="none">
<path d="M300 3106 c-134 -93 -199 -144 -207 -163 -15 -36 -18 -517 -3 -559
15 -42 376 -289 422 -289 26 0 73 28 220 130 103 72 192 140 198 153 13 29 14
531 1 565 -10 26 -380 288 -416 294 -13 3 -87 -43 -215 -131z m311 -93 c168
-113 188 -131 198 -171 5 -20 10 -102 11 -181 1 -150 4 -164 52 -223 12 -15
18 -31 15 -35 -4 -4 -30 -2 -57 3 -62 13 -76 7 -200 -80 -71 -49 -102 -66
-123 -64 -31 3 -267 161 -288 193 -18 27 -26 333 -10 386 7 23 26 49 49 67 78
61 235 162 252 162 10 0 55 -26 101 -57z"/>
<path d="M2916 3088 c-14 -19 -16 -75 -16 -408 0 -420 0 -422 55 -422 55 0 55
2 55 422 0 419 -1 430 -55 430 -13 0 -31 -10 -39 -22z"/>
<path d="M3112 3098 c-9 -9 -12 -115 -12 -415 l0 -403 25 -16 c23 -15 27 -15
50 0 19 12 25 25 25 51 0 42 9 44 41 9 89 -97 261 -79 345 35 66 90 84 228 42
338 -38 101 -140 183 -230 183 -44 0 -114 -30 -153 -65 -21 -19 -39 -35 -41
-35 -2 0 -4 67 -4 149 0 123 -3 152 -16 165 -18 19 -55 21 -72 4z m345 -365
c70 -33 111 -144 83 -227 -18 -55 -65 -104 -112 -116 -35 -10 -46 -8 -86 12
-69 34 -94 82 -90 175 4 80 20 111 78 151 39 26 79 28 127 5z"/>
<path d="M1377 3036 c-135 -49 -225 -182 -235 -352 -8 -145 34 -261 125 -344
62 -56 123 -80 207 -80 120 1 236 83 236 168 0 33 -29 72 -54 72 -8 0 -34 -16
-57 -36 -54 -45 -77 -54 -138 -54 -67 0 -127 40 -166 111 -26 47 -30 64 -30
134 0 90 19 137 77 192 76 73 166 71 262 -6 45 -36 59 -38 86 -11 73 73 -74
221 -219 220 -31 -1 -73 -7 -94 -14z"/>
<path d="M1947 2866 c-118 -42 -182 -149 -182 -301 0 -76 4 -99 26 -145 81
-174 267 -213 391 -84 62 65 83 124 83 234 0 75 -4 104 -21 141 -30 65 -81
119 -139 145 -56 27 -102 29 -158 10z m133 -135 c95 -50 116 -208 39 -296 -44
-49 -96 -62 -153 -37 -117 52 -138 222 -39 313 47 44 96 51 153 20z"/>
<path d="M2525 2867 c-122 -47 -187 -150 -188 -297 -1 -95 22 -165 74 -223 77
-88 178 -111 277 -61 186 92 211 387 46 533 -66 58 -139 75 -209 48z m136
-140 c98 -65 104 -231 10 -310 -68 -57 -169 -30 -210 57 -77 157 68 341 200
253z"/>
<path d="M3906 2865 c-146 -52 -223 -238 -171 -413 43 -143 197 -229 319 -178
53 22 113 83 143 144 24 49 27 69 28 147 0 76 -4 99 -26 145 -35 75 -70 114
-131 144 -58 29 -104 32 -162 11z m165 -162 c118 -127 20 -355 -135 -312 -69
19 -124 117 -113 200 7 56 36 108 76 135 30 21 45 25 85 21 42 -4 55 -10 87
-44z"/>
<path d="M4308 2868 c-16 -12 -22 -34 -19 -68 0 -9 39 -62 86 -120 47 -58 83
-110 81 -116 -3 -7 -41 -57 -85 -111 -67 -82 -81 -106 -81 -134 0 -41 15 -59
47 -59 17 0 45 28 109 105 48 58 90 105 93 105 3 0 46 -47 94 -105 64 -77 94
-105 110 -105 33 0 47 19 47 60 0 29 -14 52 -85 137 -47 56 -85 106 -85 111 0
5 38 56 85 113 90 110 104 148 69 183 -31 32 -52 18 -144 -94 l-91 -110 -90
110 c-89 110 -109 123 -141 98z"/>
</g>
</svg>
