<?xml version="1.0" standalone="no"?>
<!DOCTYPE svg PUBLIC "-//W3C//DTD SVG 20010904//EN"
 "http://www.w3.org/TR/2001/REC-SVG-20010904/DTD/svg10.dtd">
<svg version="1.0" xmlns="http://www.w3.org/2000/svg"
 width="200.000000pt" height="200.000000pt" viewBox="0 0 200.000000 200.000000"
 preserveAspectRatio="xMidYMid meet">

<g transform="translate(0.000000,200.000000) scale(0.100000,-0.100000)"
fill="#000000" stroke="none">
<path d="M214 1774 c-28 -67 -10 -224 26 -224 34 0 39 215 7 247 -15 16 -18
14 -33 -23z"/>
<path d="M1660 1774 c-23 -59 -6 -224 22 -224 17 0 38 69 38 122 0 105 -36
166 -60 102z"/>
<path d="M947 1703 c-4 -3 -7 -70 -7 -148 0 -78 -3 -145 -7 -148 -3 -4 -15 7
-25 24 -36 59 -88 19 -115 -87 -23 -96 -28 -322 -9 -433 17 -95 46 -165 74
-176 17 -6 49 19 57 46 8 24 25 15 25 -12 0 -14 7 -19 25 -19 l25 0 0 474 c0
423 -2 475 -16 480 -19 7 -19 7 -27 -1z m-32 -455 c32 -79 27 -258 -10 -314
-25 -38 -51 -17 -66 53 -16 78 -7 234 15 268 22 34 44 32 61 -7z"/>
<path d="M70 1586 c0 -122 -4 -146 -26 -146 -11 0 -14 -18 -14 -80 0 -69 3
-81 20 -90 19 -10 20 -21 20 -234 0 -134 4 -235 11 -254 11 -34 37 -47 69 -37
17 6 20 15 20 75 0 77 -6 100 -26 100 -21 0 -25 33 -22 195 3 147 3 150 25
153 22 3 23 8 23 87 0 79 -1 84 -22 87 -22 3 -23 7 -26 131 l-3 127 -24 0 -25
0 0 -114z"/>
<path d="M382 1453 c-17 -7 -42 -57 -59 -118 -20 -70 -28 -315 -14 -401 17
-99 38 -158 66 -184 22 -20 28 -22 50 -12 29 14 61 76 74 146 8 42 6 47 -17
62 -24 16 -26 16 -39 -2 -7 -10 -13 -21 -13 -26 0 -4 -9 -8 -20 -8 -23 0 -37
23 -46 79 l-7 41 76 0 c43 0 77 4 79 10 8 25 -13 257 -28 308 -26 92 -57 123
-102 105z m54 -198 c7 -19 14 -46 14 -60 0 -23 -4 -25 -45 -25 -41 0 -45 2
-45 25 0 38 27 95 45 95 9 0 23 -16 31 -35z"/>
<path d="M631 1434 c-12 -15 -21 -32 -22 -38 -1 -6 -4 0 -8 14 -5 18 -15 26
-34 28 l-27 3 0 -345 0 -346 30 0 30 0 0 230 c0 188 3 237 15 260 19 37 42 38
55 4 6 -14 10 -131 10 -260 l0 -234 30 0 30 0 0 268 c0 277 -9 364 -43 416
-22 33 -40 33 -66 0z"/>
<path d="M1092 1448 c-81 -102 -98 -464 -30 -646 29 -79 73 -92 99 -30 l13 31
9 -26 c6 -19 16 -27 33 -27 l24 0 0 329 c0 181 -3 336 -6 345 -3 9 -17 16 -30
16 -18 0 -24 -5 -24 -22 0 -20 -2 -19 -20 10 -20 33 -50 42 -68 20z m76 -213
c22 -63 19 -235 -4 -282 -24 -47 -44 -48 -67 -3 -15 29 -17 55 -15 160 4 137
15 173 51 168 16 -2 26 -15 35 -43z"/>
<path d="M1362 1423 l-19 -36 -7 26 c-5 20 -13 27 -31 27 l-25 0 0 -345 0
-345 30 0 30 0 0 230 c0 188 3 237 15 260 9 17 22 30 29 30 28 0 36 -62 36
-291 l0 -229 30 0 30 0 0 238 c0 199 3 241 16 260 8 12 21 22 29 22 26 0 35
-74 35 -297 l0 -223 26 0 25 0 -3 308 c-3 293 -4 309 -25 355 -30 65 -58 63
-92 -7 l-25 -49 -13 38 c-26 76 -61 87 -91 28z"/>
<path d="M1812 1439 c-48 -50 -79 -279 -62 -449 12 -123 31 -196 61 -233 28
-36 44 -34 73 9 23 34 24 35 28 13 2 -16 11 -25 26 -27 l22 -3 0 345 0 346
-25 0 c-19 0 -25 -5 -25 -22 0 -21 -2 -20 -26 10 -30 37 -46 40 -72 11z m78
-194 c20 -40 21 -246 2 -292 -27 -63 -63 -46 -81 37 -20 93 -9 242 21 278 17
20 41 10 58 -23z"/>
<path d="M210 1095 l0 -345 30 0 30 0 0 329 c0 181 -3 336 -6 345 -3 9 -17 16
-30 16 l-24 0 0 -345z"/>
<path d="M1660 1095 l0 -345 25 0 25 0 0 345 0 345 -25 0 -25 0 0 -345z"/>
<path d="M1282 418 l3 -103 115 -5 115 -5 6 -96 c7 -100 20 -142 43 -133 7 3
36 56 63 117 l49 112 139 5 140 5 3 103 3 102 -136 0 c-75 0 -144 -4 -154 -10
-10 -5 -34 -47 -52 -92 l-34 -83 -5 80 c-3 44 -9 86 -13 93 -6 9 -47 12 -148
12 l-140 0 3 -102z"/>
</g>
</svg>
